<mxfile host="app.diagrams.net" modified="2024-07-09T14:17:48.584Z" agent="Mozilla/5.0 (Windows NT 10.0; Win64; x64) AppleWebKit/537.36 (KHTML, like Gecko) Chrome/126.0.0.0 Safari/537.36" version="24.6.4" etag="wxdT63rhbdLX6QG4JpqL" type="github">
  <diagram name="Page-1" id="d0TdauyABChr4aB4ZuBe">
    <mxGraphModel>
      <root>
        <mxCell id="0" />
        <mxCell id="1" parent="0" />
      </root>
    </mxGraphModel>
  </diagram>
</mxfile>
